<?xml version="1.0" encoding="UTF-8"?>
<!DOCTYPE svg PUBLIC "-//W3C//DTD SVG 1.1//EN" "http://www.w3.org/Graphics/SVG/1.1/DTD/svg11.dtd">
<svg version="1.1" id="Layer_1" xmlns="http://www.w3.org/2000/svg" xmlns:xlink="http://www.w3.org/1999/xlink" x="0px" y="0px" width="16px" height="16px" viewBox="0 0 16 16" enable-background="new 0 0 16 16" xml:space="preserve">
  <g id="icon">
    <path d="M11.4981,0c2.4636,0,4.5012,0.4081,4.5012,1.1605s-2.0601,1.2533,-4.5237,1.2533c-2.4636,0,-4.445,-0.501,-4.445,-1.2533S9.0345,0,11.4981,0zM11.4997,3.2702c2.2386,0,4.215,-0.3449,4.5003,-0.9906c0,0.7157,-0.0008,5.4766,-0.0008,5.5444c0,1.3924,-2.0375,2.1759,-4.5012,2.1759c-2.4636,0,-4.4941,-0.8548,-4.4941,-2.1759c0,-0.0563,-0.0133,-5.4606,0.009,-5.5126C7.367,2.9063,9.1837,3.2702,11.4997,3.2702z" fill-rule="evenodd" fill="#EAB765"/>
    <path d="M14.4926,12.9077c0,-0.0764,-0.0301,-0.1497,-0.0838,-0.204l-1.7136,-1.7112c-0.1037,-0.1032,-0.2678,-0.1008,-0.3741,0.005l-1.723,1.7018c-0.0545,0.0543,-0.0852,0.1282,-0.0852,0.2052v0.8933c0,0.0976,0.118,0.1466,0.1871,0.0777l1.3204,-1.3014v1.3686c0,0.6154,-0.4852,1.065,-1.1045,1.065H10.3c-0.178,0,-0.3,0.0564,-0.3,0.2354v0.5115c0,0.1676,0.1093,0.2455,0.3,0.2455h0.6159c1.119,0,2.0268,-0.8726,2.0691,-1.9875l0.0003,-0.0029l0.0001,-0.0104c0,-0.0146,-0.0018,-0.0288,-0.0053,-0.0426v-1.3804L14.3,13.8745c0.0712,0.0709,0.1926,0.0204,0.1926,-0.0801V12.9077z" fill="#797979"/>
    <g>
      <path d="M6.004,7.8241l-0.0001,-0.0816c-0.0003,-0.128,-0.0009,-0.394,-0.0015,-0.7424H0.5v8c0,0.2761,0.2239,0.5,0.5,0.5h7c0.2761,0,0.5,-0.2239,0.5,-0.5v-4.4391C6.9403,10.0328,6.004,9.0607,6.004,7.8241z" fill="#FFFFFF"/>
      <path d="M8.0003,10.3667L8.0006,15H1V7.5h5.0033c-0.0005,-0.238,-0.0012,-0.5896,-0.0018,-1H0v8.5c0,0.5514,0.4486,1,1,1h7c0.5514,0,1,-0.4486,1,-1v-4.2901C8.6381,10.6165,8.3045,10.501,8.0003,10.3667z" fill="#6D6E71"/>
      <path d="M6.004,7.8241l-0.0001,-0.0816C6.0032,7.4622,6.0012,6.5216,6.0003,5.5H1C0.4477,5.5,0,5.9477,0,6.5v2h6.1037C6.038,8.2851,6.004,8.0594,6.004,7.8241z" fill="#3E79B4"/>
      <polygon points="5,8.5 4,8.5 4,11 1,11 1,12 4,12 4,15 5,15 5,12 8,12 8,11 5,11" fill="#B4B4B5" stroke-linejoin="miter"/>
    </g>
  </g>
</svg>
