<?xml version="1.0" encoding="UTF-8"?>
<!DOCTYPE svg PUBLIC "-//W3C//DTD SVG 1.1//EN" "http://www.w3.org/Graphics/SVG/1.1/DTD/svg11.dtd">
<svg version="1.1" id="Layer_1" xmlns="http://www.w3.org/2000/svg" xmlns:xlink="http://www.w3.org/1999/xlink" x="0px" y="0px" width="16px" height="16px" viewBox="0 0 16 16" enable-background="new 0 0 16 16" xml:space="preserve">
  <g id="icon">
    <path d="M13.8938,6.2c0.068,0.0721,0.1058,0.1675,0.1055,0.2667l-0.0106,3.5252c-0.0004,0.1568,-0.19,0.2351,-0.301,0.1243L9,5.5v10.1c0,0.2137,-0.1258,0.4,-0.3394,0.4h-0.8455h-0.7578h-0.6627c-0.2137,0,-0.3869,-0.1732,-0.3869,-0.3869v-10.1l-4.7071,4.5854C1.1893,10.209,1,10.1301,1,9.9734V6.4681c0,-0.1,0.0387,-0.196,0.108,-0.2681c0,0,5.0102,-4.9524,6.1834,-6.1116c0.12,-0.1186,0.3079,-0.1178,0.4268,0.0019C8.8682,1.2476,13.8938,6.2,13.8938,6.2z" fill-rule="evenodd" fill="#3E79B4"/>
  </g>
</svg>
